HIERARCHY
ROOT root
{
	OFFSET	0	13.1	24.9
	CHANNELS 6  Xposition Yposition Zposition Xrotation Yrotation Zrotation
	JOINT spine_1
	{
		OFFSET	0	9.99999	0
		CHANNELS 3  Xrotation Yrotation Zrotation
		JOINT spine_2
		{
			OFFSET	0	112	-10
			CHANNELS 3  Xrotation Yrotation Zrotation
			JOINT spine_3
			{
				OFFSET	0	206.5	19.3
				CHANNELS 3  Xrotation Yrotation Zrotation
				JOINT spine_4
				{
					OFFSET	0	110.4	14.6
					CHANNELS 3  Xrotation Yrotation Zrotation
					JOINT neck_1
					{
						OFFSET	0	71.8	-50.3
						CHANNELS 3  Xrotation Yrotation Zrotation
						JOINT neck_2
						{
							OFFSET	0	86.2	-25.8
							CHANNELS 3  Xrotation Yrotation Zrotation
							JOINT head_ee
							{
								OFFSET	0	179.8	-8.7
								CHANNELS 3  Xrotation Yrotation Zrotation
								End Site
								{
									OFFSET	1	0	0
								}
							}
						}
					}
					JOINT left_clavicle
					{
						OFFSET	-43.2	22.4	-70.8
						CHANNELS 3  Xrotation Yrotation Zrotation
						JOINT left_shoulder
						{
							OFFSET	-93.9	-5.79999	48.7
							CHANNELS 3  Xrotation Yrotation Zrotation
							JOINT left_elbow
							{
								OFFSET	-291.4	-30.8	15.2
								CHANNELS 3  Xrotation Yrotation Zrotation
								JOINT left_lowarm_twist
								{
									OFFSET	-110.7	-3.89999	13.6
									CHANNELS 3  Xrotation Yrotation Zrotation
									JOINT left_hand
									{
										OFFSET	-110.7	-3.89999	13.6
										CHANNELS 3  Xrotation Yrotation Zrotation
										JOINT left_ee
										{
											OFFSET	-80.8	-5.10001	12.1
											CHANNELS 3  Xrotation Yrotation Zrotation
											End Site
											{
												OFFSET	1	0	0
											}
										}
									}
								}
							}
						}
					}
					JOINT right_clavicle
					{
						OFFSET	43.2	22.4	-70.8
						CHANNELS 3  Xrotation Yrotation Zrotation
						JOINT right_shoulder
						{
							OFFSET	93.9	-5.79999	48.7
							CHANNELS 3  Xrotation Yrotation Zrotation
							JOINT right_elbow
							{
								OFFSET	291.4	-30.8	15.2
								CHANNELS 3  Xrotation Yrotation Zrotation
								JOINT right_lowarm_twist
								{
									OFFSET	110.7	-3.89999	13.6
									CHANNELS 3  Xrotation Yrotation Zrotation
									JOINT right_hand
									{
										OFFSET	110.7	-3.89999	13.6
										CHANNELS 3  Xrotation Yrotation Zrotation
										JOINT right_ee
										{
											OFFSET	80.8	-5.10001	12.1
											CHANNELS 3  Xrotation Yrotation Zrotation
											End Site
											{
												OFFSET	1	0	0
											}
										}
									}
								}
							}
						}
					}
				}
			}
		}
	}
	JOINT left_hip
	{
		OFFSET	-82.8	-127.5	0.300001
		CHANNELS 3  Xrotation Yrotation Zrotation
		JOINT left_knee
		{
			OFFSET	-28.2	-396.7	2.2
			CHANNELS 3  Xrotation Yrotation Zrotation
			JOINT left_ankle
			{
				OFFSET	-11.7	-411.3	35.4
				CHANNELS 3  Xrotation Yrotation Zrotation
				JOINT left_toes
				{
					OFFSET	0	-60	-88.6
					CHANNELS 3  Xrotation Yrotation Zrotation
					JOINT left_foot_ee
					{
						OFFSET	-22.5	-16.5	-42.2
						CHANNELS 3  Xrotation Yrotation Zrotation
						End Site
						{
							OFFSET	1	0	0
						}
					}
				}
			}
		}
	}
	JOINT right_hip
	{
		OFFSET	82.8	-127.5	0.300001
		CHANNELS 3  Xrotation Yrotation Zrotation
		JOINT right_knee
		{
			OFFSET	28.2	-396.7	2.2
			CHANNELS 3  Xrotation Yrotation Zrotation
			JOINT right_ankle
			{
				OFFSET	11.7	-411.3	35.4
				CHANNELS 3  Xrotation Yrotation Zrotation
				JOINT right_toes
				{
					OFFSET	0	-60	-88.6
					CHANNELS 3  Xrotation Yrotation Zrotation
					JOINT right_foot_ee
					{
						OFFSET	22.5	-16.5	-42.2
						CHANNELS 3  Xrotation Yrotation Zrotation
						End Site
						{
							OFFSET	1	0	0
						}
					}
				}
			}
		}
	}
}
MOTION
Frames: 5
Frame Time: 0.02
3177.02 653.055 -1669.29 -20.1053621412 18.12215224 18.3821426542 9.37987 -0.573561 -4.02644 9.38883 -0.316401 -4.05471 9.39247 -0.122665 -4.06517 9.37022 -0.762627 -3.995 -17.0788 2.66449 1.50016 -17.0919 4.27981 2.38034 -0.0 0.0 -0.0 6.19693 23.6135 11.2894 -37.856 12.6976 60.2549 0.203501 -5.75659 0.0102316 5.37856 0.158213 -0.668559 5.02605 -1.27415 35.4095 -0.0 0.0 -0.0 7.30117 18.8245 -13.5269 -25.1636 5.5328 -57.775 2.15677 46.8881 -0.935379 -75.2158 7.21244 -5.31853 -8.75527 -19.0757 53.3093 0.0 0.0 0.0 54.0998 7.73721 -8.25171 -10.202 0.283757 1.5379 9.21686 28.2726 -1.40078 14.4376 -0.0 -0.0 -0.0 0.0 -0.0 10.6225 -5.07758 -9.87969 -27.2324 -0.140082 -4.13759 30.4202 -23.5561 4.12166 31.2871 -0.0 -0.0 0.0 0.0 0.0 
3177.02 653.055 -1669.29 -20.1677275237 18.6340963507 18.5799457915 9.37987 -0.573561 -4.02644 9.38883 -0.316401 -4.05471 9.39247 -0.122665 -4.06517 9.37022 -0.762627 -3.995 -17.0788 2.66449 1.50016 -17.0919 4.27981 2.38034 -0.0 0.0 -0.0 6.19693 23.6135 11.2894 -37.856 12.6976 60.2549 0.203501 -5.75659 0.0102316 5.37856 0.158213 -0.668559 5.02605 -1.27415 35.4095 -0.0 0.0 -0.0 7.30117 18.8245 -13.5269 -25.1636 5.5328 -57.775 2.15677 46.8881 -0.935379 -75.2158 7.21244 -5.31853 -8.75527 -19.0757 53.3093 0.0 0.0 0.0 54.0998 7.73721 -8.25171 -10.202 0.283757 1.5379 9.21686 28.2726 -1.40078 14.4376 -0.0 -0.0 -0.0 0.0 -0.0 10.6225 -5.07758 -9.87969 -27.2324 -0.140082 -4.13759 30.4202 -23.5561 4.12166 31.2871 -0.0 -0.0 0.0 0.0 0.0 
3177.02 653.055 -1669.29 -20.2371794168 19.1850554544 18.794250824 9.37987 -0.573561 -4.02644 9.38883 -0.316401 -4.05471 9.39247 -0.122665 -4.06517 9.37022 -0.762627 -3.995 -17.0788 2.66449 1.50016 -17.0919 4.27981 2.38034 -0.0 0.0 -0.0 6.19693 23.6135 11.2894 -37.856 12.6976 60.2549 0.203501 -5.75659 0.0102316 5.37856 0.158213 -0.668559 5.02605 -1.27415 35.4095 -0.0 0.0 -0.0 7.30117 18.8245 -13.5269 -25.1636 5.5328 -57.775 2.15677 46.8881 -0.935379 -75.2158 7.21244 -5.31853 -8.75527 -19.0757 53.3093 0.0 0.0 0.0 54.0998 7.73721 -8.25171 -10.202 0.283757 1.5379 9.21686 28.2726 -1.40078 14.4376 -0.0 -0.0 -0.0 0.0 -0.0 10.6225 -5.07758 -9.87969 -27.2324 -0.140082 -4.13759 30.4202 -23.5561 4.12166 31.2871 -0.0 -0.0 0.0 0.0 0.0 
3177.02 653.055 -1669.29 -20.3088429724 19.7341559284 19.0093621422 9.37987 -0.573561 -4.02644 9.38883 -0.316401 -4.05471 9.39247 -0.122665 -4.06517 9.37022 -0.762627 -3.995 -17.0788 2.66449 1.50016 -17.0919 4.27981 2.38034 -0.0 0.0 -0.0 6.19693 23.6135 11.2894 -37.856 12.6976 60.2549 0.203501 -5.75659 0.0102316 5.37856 0.158213 -0.668559 5.02605 -1.27415 35.4095 -0.0 0.0 -0.0 7.30117 18.8245 -13.5269 -25.1636 5.5328 -57.775 2.15677 46.8881 -0.935379 -75.2158 7.21244 -5.31853 -8.75527 -19.0757 53.3093 0.0 0.0 0.0 54.0998 7.73721 -8.25171 -10.202 0.283757 1.5379 9.21686 28.2726 -1.40078 14.4376 -0.0 -0.0 -0.0 0.0 -0.0 10.6225 -5.07758 -9.87969 -27.2324 -0.140082 -4.13759 30.4202 -23.5561 4.12166 31.2871 -0.0 -0.0 0.0 0.0 0.0 
3166.4651424 656.331 -1693.67108786 -20.617899206 17.9445916628 18.5002733471 9.64045 -0.512719 -4.07121 9.64964 -0.25284 -4.09553 9.64793 -0.0753925 -4.10262 9.62517 -0.721844 -4.03943 -17.6859 4.94995 5.29283 -17.6545 6.61816 6.80312 -0.0 0.0 -0.0 7.65858 23.8256 13.3504 -37.1649 11.9495 57.754 0.237551 -6.71163 0.0139293 8.36381 0.218733 -1.04505 6.71847 13.7742 58.3457 -0.0 0.0 -0.0 7.4232 18.6643 -13.8052 -25.4576 5.42048 -59.1269 1.99887 44.7123 -0.822154 -75.0111 7.18629 -5.31905 -9.03093 -21.5387 52.6325 0.0 0.0 0.0 54.3006 9.72105 -10.151 -11.0793 0.295287 1.67202 33.03 21.4148 -4.36316 16.2388 -0.0 -0.0 -0.0 0.0 -0.0 9.82078 -10.7332 -10.1734 -27.0988 -0.144211 -4.1175 36.1452 -25.5988 4.80021 37.6482 -0.0 -0.0 0.0 0.0 0.0 
